<?xml version="1.0" encoding="utf-8"?>
<!-- Generator: Adobe Illustrator 23.0.3, SVG Export Plug-In . SVG Version: 6.00 Build 0)  -->
<svg version="1.1" id="Fast_Forward" xmlns="http://www.w3.org/2000/svg" xmlns:xlink="http://www.w3.org/1999/xlink" x="0px"
	 y="0px" viewBox="0 0 512 512" style="enable-background:new 0 0 512 512;" xml:space="preserve">
<style type="text/css">
	.st0{fill:#06CE57;}
</style>
<path d="M340.85,375.97h-63.99c-4.94,0-7.47-5.92-4.05-9.49L377.53,257c2.07-2.17,2.07-5.59,0-7.75L272.81,139.76
	c-3.41-3.57-0.88-9.49,4.05-9.49h63.99c1.53,0,3,0.63,4.05,1.73l112.14,117.24c2.07,2.17,2.07,5.59,0,7.75L344.9,374.24
	C343.85,375.35,342.38,375.97,340.85,375.97z"/>
<path class="st0" d="M226.68,375.97H162.7c-4.94,0-7.47-5.92-4.05-9.49L263.36,257c2.07-2.17,2.07-5.59,0-7.75L158.64,139.76
	c-3.41-3.57-0.88-9.49,4.05-9.49h63.99c1.53,0,3,0.63,4.05,1.73l112.14,117.24c2.07,2.17,2.07,5.59,0,7.75L230.74,374.24
	C229.68,375.35,228.21,375.97,226.68,375.97z"/>
<path d="M115.53,375.97H51.55c-4.94,0-7.47-5.92-4.05-9.49L152.22,257c2.07-2.17,2.07-5.59,0-7.75L47.49,139.76
	c-3.41-3.57-0.88-9.49,4.05-9.49h63.99c1.53,0,3,0.63,4.05,1.73l112.14,117.24c2.07,2.17,2.07,5.59,0,7.75L119.59,374.24
	C118.53,375.35,117.06,375.97,115.53,375.97z"/>
</svg>
